<svg width="93" height="93" viewBox="0 0 93 93" fill="none" xmlns="http://www.w3.org/2000/svg">
<g clip-path="url(#clip0_2_21)">
<path d="M70.1615 23.7774C64.1572 17.5931 55.9422 14.0473 47.3236 13.92C38.705 13.7928 30.3889 17.0944 24.2046 23.0987C18.0203 29.103 14.4745 37.318 14.3473 45.9366C14.22 54.5552 17.5217 62.8714 23.5259 69.0556C29.5302 75.2399 37.7453 78.7857 46.3638 78.913C54.9824 79.0402 63.2986 75.7386 69.4829 69.7343C75.6671 63.73 79.2129 55.515 79.3402 46.8964C79.4675 38.2778 76.1658 29.9616 70.1615 23.7774V23.7774ZM45.0208 32.3151C45.0201 32.0454 45.0731 31.7782 45.1768 31.5292C45.2804 31.2802 45.4326 31.0543 45.6245 30.8648C45.8164 30.6752 46.0441 30.5258 46.2943 30.4251C46.5446 30.3245 46.8123 30.2748 47.082 30.2787C47.3517 30.2827 47.6179 30.3404 47.8651 30.4483C48.1123 30.5563 48.3355 30.7124 48.5216 30.9075C48.7078 31.1027 48.8533 31.3329 48.9496 31.5849C49.0458 31.8369 49.0909 32.1055 49.0822 32.3751L48.7348 55.905L56.8027 48.0719C57.1892 47.6966 57.709 47.4902 58.2477 47.4982C58.7863 47.5061 59.2998 47.7278 59.675 48.1143C60.0503 48.5008 60.2567 49.0205 60.2487 49.5592C60.2408 50.0979 60.0191 50.6113 59.6326 50.9866L48.0466 62.2354C47.6601 62.6107 47.1403 62.817 46.6017 62.8091C46.063 62.8011 45.5496 62.5795 45.1743 62.193L33.9255 50.607C33.5502 50.2204 33.3438 49.7007 33.3518 49.162C33.3598 48.6234 33.5814 48.1099 33.9679 47.7346C34.3544 47.3594 34.8742 47.153 35.4128 47.161C35.9515 47.1689 36.4649 47.3905 36.8402 47.7771L44.6733 55.845L45.0208 32.3151Z" fill="#FFD233"/>
</g>
<defs>
<clipPath id="clip0_2_21">
<rect width="65" height="65" fill="white" transform="translate(92.8007 47.0952) rotate(135.846)"/>
</clipPath>
</defs>
</svg>
