<svg width="57" height="57" viewBox="0 0 57 57" fill="none" xmlns="http://www.w3.org/2000/svg">
<path d="M28.5 22.61C27.3351 22.61 26.1963 22.9554 25.2277 23.6026C24.2591 24.2498 23.5041 25.1697 23.0583 26.246C22.6125 27.3223 22.4959 28.5065 22.7232 29.6491C22.9504 30.7916 23.5114 31.8411 24.3351 32.6649C25.1589 33.4886 26.2084 34.0496 27.3509 34.2768C28.4935 34.5041 29.6777 34.3875 30.754 33.9417C31.8303 33.4959 32.7502 32.7409 33.3974 31.7723C34.0446 30.8037 34.39 29.6649 34.39 28.5C34.39 27.7265 34.2377 26.9606 33.9417 26.246C33.6457 25.5314 33.2118 24.8821 32.6649 24.3351C32.1179 23.7882 31.4686 23.3543 30.754 23.0583C30.0394 22.7623 29.2735 22.61 28.5 22.61V22.61ZM52.0838 16.7913C52.0713 14.9572 51.7335 13.1399 51.0863 11.4237C50.6095 10.168 49.872 9.0276 48.9222 8.07782C47.9724 7.12803 46.832 6.39045 45.5763 5.91375C43.8601 5.26648 42.0428 4.92874 40.2088 4.91625C37.145 4.75 36.2425 4.75 28.5 4.75C20.7575 4.75 19.855 4.75 16.7913 4.91625C14.9572 4.92874 13.1399 5.26648 11.4237 5.91375C10.168 6.39045 9.0276 7.12803 8.07782 8.07782C7.12803 9.0276 6.39045 10.168 5.91375 11.4237C5.26648 13.1399 4.92874 14.9572 4.91625 16.7913C4.75 19.855 4.75 20.7575 4.75 28.5C4.75 36.2425 4.75 37.145 4.91625 40.2088C4.94181 42.0493 5.27909 43.8722 5.91375 45.6C6.38834 46.85 7.12531 47.9838 8.075 48.925C9.02071 49.8805 10.1635 50.6181 11.4237 51.0863C13.1399 51.7335 14.9572 52.0713 16.7913 52.0838C19.855 52.25 20.7575 52.25 28.5 52.25C36.2425 52.25 37.145 52.25 40.2088 52.0838C42.0428 52.0713 43.8601 51.7335 45.5763 51.0863C46.8365 50.6181 47.9793 49.8805 48.925 48.925C49.8747 47.9838 50.6117 46.85 51.0863 45.6C51.7329 43.8755 52.0706 42.0505 52.0838 40.2088C52.25 37.145 52.25 36.2425 52.25 28.5C52.25 20.7575 52.25 19.855 52.0838 16.7913V16.7913ZM46.0512 35.7912C45.975 37.2569 45.6622 38.7005 45.125 40.0663C44.6639 41.2055 43.9785 42.2404 43.1095 43.1095C42.2404 43.9785 41.2055 44.6639 40.0663 45.125C38.6876 45.6323 37.2359 45.913 35.7675 45.9563H21.2325C19.7641 45.913 18.3124 45.6323 16.9338 45.125C15.756 44.6873 14.6924 43.9891 13.8225 43.0825C12.962 42.2305 12.2974 41.2012 11.875 40.0663C11.3657 38.689 11.0927 37.2357 11.0675 35.7675V21.2325C11.0927 19.7643 11.3657 18.311 11.875 16.9338C12.3127 15.756 13.0109 14.6924 13.9175 13.8225C14.7733 12.9666 15.8015 12.3027 16.9338 11.875C18.3124 11.3677 19.7641 11.087 21.2325 11.0438H35.7675C37.2359 11.087 38.6876 11.3677 40.0663 11.875C41.244 12.3127 42.3076 13.0109 43.1775 13.9175C44.038 14.7695 44.7026 15.7988 45.125 16.9338C45.6323 18.3124 45.913 19.7641 45.9563 21.2325V28.5C45.9563 33.3925 46.1225 33.8913 46.0512 35.7675V35.7912ZM42.2513 18.1213C41.9685 17.3541 41.5226 16.6574 40.9445 16.0793C40.3663 15.5011 39.6697 15.0553 38.9025 14.7725C37.8491 14.4074 36.7397 14.2305 35.625 14.25H21.375C20.2546 14.261 19.145 14.47 18.0975 14.8675C17.3421 15.1374 16.6528 15.5651 16.0754 16.122C15.498 16.6789 15.0458 17.3523 14.7488 18.0975C14.4038 19.1552 14.2353 20.2625 14.25 21.375V35.625C14.2735 36.7441 14.4822 37.8516 14.8675 38.9025C15.1503 39.6697 15.5961 40.3663 16.1743 40.9445C16.7524 41.5226 17.4491 41.9685 18.2163 42.2513C19.2296 42.6239 20.2959 42.8324 21.375 42.8687H35.625C36.7454 42.8578 37.855 42.6487 38.9025 42.2513C39.6697 41.9685 40.3663 41.5226 40.9445 40.9445C41.5226 40.3663 41.9685 39.6697 42.2513 38.9025C42.6487 37.855 42.8578 36.7454 42.8687 35.625V21.375C42.8694 20.2535 42.66 19.1418 42.2513 18.0975V18.1213ZM28.5 37.5725C27.3097 37.5725 26.1311 37.3377 25.0317 36.8814C23.9323 36.4252 22.9337 35.7566 22.0932 34.9138C21.2526 34.071 20.5866 33.0707 20.1332 31.9701C19.6799 30.8695 19.4481 29.6903 19.4512 28.5C19.4513 26.7046 19.984 24.9496 20.9819 23.4571C21.9799 21.9647 23.3982 20.8018 25.0574 20.1159C26.7165 19.4299 28.5419 19.2516 30.3025 19.6036C32.063 19.9556 33.6795 20.822 34.9474 22.0932C36.2152 23.3644 37.0774 24.9832 37.4248 26.7446C37.7722 28.5061 37.5891 30.331 36.8988 31.9884C36.2085 33.6457 35.042 35.061 33.5469 36.0551C32.0518 37.0491 30.2954 37.5772 28.5 37.5725V37.5725ZM38 21.2088C37.475 21.1532 36.9891 20.9053 36.636 20.5128C36.2829 20.1203 36.0875 19.6111 36.0875 19.0831C36.0875 18.5552 36.2829 18.0459 36.636 17.6534C36.9891 17.261 37.475 17.0131 38 16.9575C38.525 17.0131 39.0109 17.261 39.364 17.6534C39.7171 18.0459 39.9125 18.5552 39.9125 19.0831C39.9125 19.6111 39.7171 20.1203 39.364 20.5128C39.0109 20.9053 38.525 21.1532 38 21.2088Z" fill="#FFD233"/>
</svg>
