<svg width="57" height="57" viewBox="0 0 57 57" fill="none" xmlns="http://www.w3.org/2000/svg">
<path d="M28.5 1.14001C13.3893 1.14001 1.14 13.3893 1.14 28.5C1.14 43.6107 13.3893 55.86 28.5 55.86C43.6107 55.86 55.86 43.6107 55.86 28.5C55.86 13.3893 43.6107 1.14001 28.5 1.14001ZM21.8025 39.8402H16.2621V22.0106H21.8025V39.8402ZM18.9981 19.8218C17.2482 19.8218 16.1167 18.582 16.1167 17.0487C16.1167 15.4841 17.2824 14.2814 19.0693 14.2814C20.8563 14.2814 21.9507 15.4841 21.9849 17.0487C21.9849 18.582 20.8563 19.8218 18.9981 19.8218ZM42.0375 39.8402H36.4971V29.9592C36.4971 27.6593 35.6934 26.0975 33.6898 26.0975C32.1594 26.0975 31.2503 27.1548 30.8484 28.1723C30.7002 28.5342 30.6631 29.0472 30.6631 29.5574V39.8373H25.1199V27.6963C25.1199 25.4705 25.0486 23.6094 24.9745 22.0077H29.7882L30.0419 24.4844H30.153C30.8826 23.3216 32.6695 21.6059 35.6592 21.6059C39.3043 21.6059 42.0375 24.0483 42.0375 29.298V39.8402V39.8402Z" fill="#FFD233"/>
</svg>
