<svg width="57" height="57" viewBox="0 0 57 57" fill="none" xmlns="http://www.w3.org/2000/svg">
<path d="M28.5 3.5625C14.7287 3.5625 3.5625 14.7287 3.5625 28.5C3.5625 42.2713 14.7287 53.4375 28.5 53.4375C42.2713 53.4375 53.4375 42.2713 53.4375 28.5C53.4375 14.7287 42.2713 3.5625 28.5 3.5625ZM40.4845 22.3603C40.5012 22.6219 40.5012 22.8946 40.5012 23.1618C40.5012 31.3333 34.2779 40.7461 22.9058 40.7461C19.3989 40.7461 16.1481 39.7274 13.4095 37.974C13.9104 38.0297 14.3892 38.052 14.9013 38.052C17.7958 38.052 20.4565 37.0723 22.5773 35.4135C19.8609 35.3578 17.5787 33.5766 16.7994 31.1273C17.7513 31.2665 18.6085 31.2665 19.5882 31.016C18.1895 30.7319 16.9323 29.9722 16.0302 28.8662C15.1281 27.7601 14.6368 26.3759 14.6396 24.9486V24.8707C15.4579 25.3327 16.4209 25.6166 17.4284 25.6556C16.5814 25.0911 15.8868 24.3264 15.4062 23.4292C14.9256 22.532 14.6737 21.53 14.673 20.5122C14.673 19.36 14.9736 18.3079 15.5136 17.395C17.0661 19.3062 19.0033 20.8692 21.1995 21.9827C23.3956 23.0961 25.8014 23.7349 28.2606 23.8576C27.3867 19.655 30.5262 16.2539 34.3002 16.2539C36.0814 16.2539 37.6846 16.9998 38.8146 18.2021C40.2117 17.9405 41.5477 17.4173 42.7389 16.7159C42.2769 18.1465 41.3083 19.3544 40.0225 20.117C41.2693 19.9834 42.4717 19.6383 43.585 19.154C42.7444 20.3897 41.6924 21.4863 40.4845 22.3603V22.3603Z" fill="#FFD233"/>
</svg>
